<?xml version="1.0" encoding="UTF-8"?>
<svg id="Layer_1" data-name="Layer 1" xmlns="http://www.w3.org/2000/svg" viewBox="0 0 183.44 142.53">
  <defs>
    <style>
      .cls-1 {
        fill: #d2232a;
        fill-rule: evenodd;
      }
    </style>
  </defs>
  <path class="cls-1" d="m90.14,83.3c5.8,7.37,13.62,13.76,23.47,17.33,6.15,2.23,14.09,3.28,22.46,3.11,4.57-.09,8.73-1.69,12.71-2.52-2.72,1.36-5.51,2.44-8.25,3.79-13.24,6.49-25.74,13.94-37.1,22.63-2.11,1.61-4.34,3.53-6.4,5.55-2.82,2.76-5.41,5.16-6.48,9.34-3.12-8.58-10.2-13.31-17.25-18.01-10.55-7.03-21.82-13.36-33.57-19.27-3.91-1.96-7.8-3.9-11.53-6.06-7.46-4.33-13.87-9.47-18.76-16.41C4.52,75.8,1.08,67.47.19,56.79c-.96-11.54,1.81-21.31,5.89-28.94,4.05-7.56,9.55-13.58,16.66-18.59C29.77,4.3,37.87.59,48.74.09c5.44-.25,11.88.99,16.15,2.35,14.03,4.46,23.73,13.07,30.04,24.9,4.25,7.98,7.02,18.45,5.97,30.13-.98,10.96-5.27,18.98-10.77,25.83Zm-47.37-49.64c-5.57,2.27-9.81,6.43-11.78,11.86-1.59,4.39-1.59,9.43-.17,13.38,2.56,7.08,8.35,12.62,16.91,13.29,4.29.34,8.53-.76,11.86-2.61,2.87-1.59,5.39-4.07,7.24-7.15,1.84-3.06,3.37-6.81,3.2-11.27-.23-6.01-3.42-10.31-6.65-13.29-3.29-3.04-8.16-5.91-14.05-5.64-2.41.11-4.56.61-6.56,1.43Z"/>
  <path class="cls-1" d="m126.15,0c.08.38-.33.6-.51.84-6.83,9.39-12.16,21.74-13.63,36.43-.85,8.46.35,16.38,3.45,21.96,2.97,5.36,8.02,9.8,15.48,10.35,8.05.59,13.09-4.72,16.41-9.51,3.66-5.29,5.58-11.18,5.97-19.86.37-8.19-1.56-16.18-3.62-22.29-2.21-6.58-4.92-12.47-7.91-17.92,15.88,5.06,28,13.99,35.34,27.77,3.66,6.87,6.31,15.37,6.31,25.24s-2.85,18.06-6.73,24.82c-3.75,6.53-9.14,12.05-15.31,16.24-6.44,4.37-13.98,7.31-23.56,7.99-10.25.74-18.89-1.92-25.91-5.3-7.25-3.49-12.79-8.11-17.58-13.97,6.06-8.78,10.52-19.73,9.76-34.25-.63-12.02-4.61-21.14-10.26-28.44-.55-.71-2.33-2.43-2.36-3.11-.04-.97,2.25-2.83,2.86-3.45,3.18-3.18,6.84-5.7,10.85-7.82,5.96-3.15,12.47-5.33,20.95-5.72Z"/>
</svg>